<svg width="73" height="156" viewBox="0 0 73 156" fill="none" xmlns="http://www.w3.org/2000/svg">
<path d="M-5.5487e-06 29.0606L49.2806 53.508L29.7615 63.0909L9.47877 73.0749L-3.42118e-06 77.7326L49.4154 102.47L-1.25761e-06 127.229L58.5572 156L58.5572 144.3L23.6295 127.14L58.5572 109.646L58.5572 95.316L23.6295 77.8217L42.6994 68.4394L42.6994 76.5514L53.2788 71.448L53.2788 63.2469L53.6382 63.0686L58.5572 60.6394L73 53.5526L58.5572 46.3766L41.2394 37.7966L23.6295 29.0606L42.6994 19.5891L42.6994 27.612L53.2788 22.5309L53.2788 14.352L58.5572 11.7223L58.5572 -1.60594e-06L-5.5487e-06 29.0606Z" fill="#191919"/>
</svg>
