<svg width="97" height="80" viewBox="0 0 97 80" fill="none" xmlns="http://www.w3.org/2000/svg">
<g clip-path="url(#clip0_2486_3039)">
<rect width="97" height="80" fill="white"/>
<path d="M69.8001 38.6H70.0001L71.2001 43.9H74.5001L73.0001 37.4C73.8001 36.7 74.3001 35.3 74.3001 33.3C74.3001 29.5 72.4001 28 70.2001 28H66.6001V43.8H69.9001V38.6H69.8001ZM69.9001 31H70.2001C70.7001 31 71.1001 31.3 71.1001 33.4C71.1001 35.7 70.7001 36.2 70.3001 36.2H70.0001V31H69.9001Z" fill="#3D2154"/>
<path d="M63.0001 36.8001H65.0001V34.1001H63.0001V31.0001H65.8001V28.1001H59.6001V43.9001H65.9001V41.1001H63.0001V36.8001Z" fill="#3D2154"/>
<path d="M55.2999 34.1001H54.0999V28.1001H50.7V43.9001H54.0999V36.8001H55.2999V43.9001H58.7V28.1001H55.2999V34.1001Z" fill="#3D2154"/>
<path d="M42.8 31.0001H44.8V43.9001H48.2001V31.0001H50.3V28.1001H42.8V31.0001Z" fill="#3D2154"/>
<path d="M30.9 31.3001C30.9 32.7001 30.9 34.3001 31 36.0001C30.7 34.4001 30.3 32.6001 30 31.0001L29.2999 28.1001H26.2V44.0001H29V41.1001C29 40.0001 29 37.5001 28.9 36.3001C29.2 38.0001 29.7 39.6001 30.2 41.3001L31 44.0001H33.7V28.2001H30.9V31.3001Z" fill="#3D2154"/>
<path d="M77.1 58.7C80.8 55.6 84.3 51 86.1 46.4C88.4 40.5 88.7 33.4 86.3 27.4C85.3 24.8 83.8 22.5 82.1 20.5C83.3 22.7 84.3 25.1 84.8 27.6C85.6 31.7 85.4 35.9 84.4 39.9C83.4 43.8 81.5 47.3 79.2 50.4C77.3 52.9 75.1 55.2 72.5 57C73.8 57.2 75.2 57.5 76.3 58.2C76.6 58.3 76.9 58.5 77.1 58.7Z" fill="#8225CB"/>
<path d="M19.7001 28.2002L17.1001 44.0002H20.3001L20.6001 41.1002H22.0001L22.3001 44.0002H25.7001L23.2001 28.2002H19.7001ZM20.8001 38.8002C20.9001 37.5002 21.1001 36.0002 21.2001 35.0002C21.2001 34.5002 21.3001 34.0002 21.4001 33.5002C21.4001 34.0002 21.5001 34.5002 21.5001 35.0002C21.6001 36.0002 21.8001 37.6002 21.9001 38.8002H20.8001Z" fill="#3D2154"/>
<path d="M88.7 70.9001C86.7 71.0001 84.8 71.8001 83.1 73.3001C82.7 73.7001 82.3 74.2001 82 74.7001C82.8 74.8001 83.6 74.9001 84.3 74.9001C85.6 74.9001 86.8 74.6001 88 74.1001C89.1 73.7001 90.3 73.0001 91 72.0001C91.2 71.7001 91.4 71.4001 91.4 71.1001C90.4 70.8001 89.4 70.8001 88.7 70.9001Z" fill="white"/>
<path d="M19.9 28.1001L17.3 43.9001H20.5L20.8 41.0001H22.3L22.6 43.9001H26L23.5 28.1001H19.9ZM21 38.7001C21.1 37.4001 21.3 35.9001 21.4 34.9001C21.4 34.4001 21.5 33.9001 21.6 33.4001C21.6 33.9001 21.7001 34.4001 21.7001 34.9001C21.8001 35.9001 22 37.5001 22.1 38.7001H21Z" fill="#3D2154"/>
<path d="M80.9001 22.4002C79.2001 19.0002 76.7001 16.2002 73.9001 13.9002C73.8001 13.8002 73.7001 13.7002 73.6001 13.6002C68.1001 9.30015 61.6001 7.20015 55.0001 6.60015C47.4001 6.00015 39.8001 7.20015 32.6001 9.70015C26.2001 11.9002 19.8001 15.3002 15.0001 20.8002C12.7001 23.5002 10.8001 26.5002 9.5001 30.0002C8.3001 33.4002 7.6001 37.0002 7.6001 40.7002C7.6001 44.3002 8.3001 47.9002 9.9001 51.1002C10.8001 52.9002 11.9001 54.5002 13.2001 56.0002C13.6001 56.4002 13.9001 56.8002 14.3001 57.2002C17.9001 60.7002 22.5001 62.7001 27.1001 63.7001C29.6001 64.3001 32.0001 64.6001 34.6001 64.7001C35.9001 64.7001 37.1001 64.7001 38.4001 64.7001C38.7001 64.7001 39.0001 64.7002 39.4001 64.6002C39.6001 64.6002 39.7001 64.6002 39.9001 64.6002C40.0001 64.6002 40.0001 64.6002 40.1001 64.6002H40.2001C40.8001 64.5002 41.4001 64.5002 42.0001 64.4002C43.2001 64.3002 44.5001 64.1002 45.7001 63.8002C46.3001 63.7002 46.9001 63.6002 47.5001 63.4002C47.8001 63.3002 48.1001 63.3001 48.4001 63.2001C48.5001 63.2001 48.7001 63.1002 48.8001 63.1002H48.9001H49.0001C50.1001 62.8002 51.2001 62.4002 52.2001 62.0002C52.7001 61.8002 53.2001 61.6002 53.7001 61.4002C54.0001 61.3002 54.2001 61.2002 54.5001 61.1002C54.6001 61.0002 54.7001 61.0002 54.8001 60.9002L54.9001 60.8002C55.2001 60.6002 55.7001 60.5002 56.1001 60.8002C56.4001 61.1002 56.2001 61.5002 56.0001 61.7002C54.9001 62.9002 53.7001 64.2002 53.5001 66.0002C53.5001 66.3002 53.5001 66.6002 53.5001 66.9002C53.5001 67.4002 53.7001 67.9002 54.0001 68.3002C54.5001 69.0002 55.2001 69.4002 55.9001 69.8002C56.0001 69.9002 56.1001 69.9002 56.2001 70.0002C58.8001 71.2002 61.7001 71.4002 64.5001 71.1002C67.4001 70.8002 70.2001 70.2001 72.8001 68.7001C74.8001 67.6001 78.0001 65.4002 77.1001 62.3002C77.0001 62.0002 76.9001 61.7002 76.8001 61.4002C76.5001 60.8002 76.1001 60.4002 75.7001 60.0002C74.2001 58.7002 72.0001 58.5002 70.2001 58.4002C70.0001 58.4002 69.8001 58.4002 69.6001 58.2002C69.5001 58.1002 69.5001 57.9002 69.5001 57.8002C69.5001 57.8002 69.5001 57.8002 69.5001 57.7002C69.6001 57.4002 69.8001 57.3002 70.1001 57.1002C71.5001 56.3002 72.7001 55.3002 73.9001 54.2002C76.5001 51.8002 78.9001 48.8002 80.5001 45.4002C82.2001 42.0002 83.2001 38.1002 83.3001 34.1002C83.5001 29.9002 82.7001 25.9002 80.9001 22.4002ZM22.4001 44.0002L22.0001 41.1002H20.5001L20.3001 44.0002H17.1001L19.7001 28.2002H23.2001L25.8001 44.0002H22.4001ZM33.7001 44.0002H31.0001L30.2001 41.2002C29.7001 39.5002 29.2001 38.0002 28.9001 36.2002C29.0001 37.4002 29.0001 39.9002 29.0001 41.0002V44.0002H26.2001V28.2002H29.3001L30.0001 31.1002C30.4001 32.7002 30.8001 34.5002 31.0001 36.1002C30.9001 34.3002 30.9001 32.8002 30.9001 31.4002V28.3002H33.7001V44.0002ZM38.7001 44.2002C36.0001 44.2002 34.6001 42.1002 34.6001 36.2002C34.6001 30.3002 35.9001 28.2002 38.7001 28.2002C41.5001 28.2002 42.8001 30.3002 42.8001 36.2002C42.8001 42.1002 41.5001 44.2002 38.7001 44.2002ZM50.0001 31.1002H48.0001V44.0002H44.6001V31.1002H42.6001V28.2002H50.0001V31.1002ZM55.1001 44.0002V37.0002H53.9001V44.0002H50.5001V28.2002H53.9001V34.3002H55.1001V28.2002H58.5001V44.0002H55.1001ZM65.7001 44.0002H59.4001V28.2002H65.7001V31.1002H62.9001V34.3002H64.9001V37.0002H62.9001V41.3002H65.7001V44.0002ZM71.0001 44.0002L69.8001 38.7002H69.6001V44.0002H66.3001V28.2002H69.9001C72.2001 28.2002 74.0001 29.7002 74.0001 33.5002C74.0001 35.5002 73.5001 36.9002 72.7001 37.6002L74.3001 44.0002H71.0001Z" fill="#FFFCF1"/>
<path d="M69.6 38.7002H69.8L71 44.0002H74.3L72.7 37.6002C73.5 36.9002 74 35.5002 74 33.5002C74 29.7002 72.1 28.2002 69.9 28.2002H66.3V44.0002H69.6V38.7002ZM69.6 31.1002H69.9C70.4 31.1002 70.8 31.4002 70.8 33.5002C70.8 35.8002 70.4 36.3002 70 36.3002H69.7V31.1002H69.6Z" fill="#3D2154"/>
<path d="M78.7 73.7C78.8 74.1 78.9 73.9 78.7 73.5C78.7 73.6 78.7 73.6 78.7 73.7Z" fill="white"/>
<path d="M69.9001 31.1001H69.6001V36.3001H69.9001C70.3001 36.3001 70.7001 35.8001 70.7001 33.5001C70.7001 31.3001 70.4001 31.1001 69.9001 31.1001Z" fill="#FFFCF1"/>
<path d="M62.8001 36.9002H64.8001V34.2002H62.8001V31.1002H65.6001V28.2002H59.4001V44.0002H65.7001V41.2002H62.8001V36.9002Z" fill="#3D2154"/>
<path d="M38.7 31.3003C38 31.3003 38 32.3003 38 36.2003C38 40.2003 38 41.2003 38.7 41.2003C39.4 41.2003 39.4 40.1003 39.4 36.2003C39.4 32.2003 39.4 31.3003 38.7 31.3003Z" fill="#FFFCF1"/>
<path d="M55.1 34.3002H53.9V28.2002H50.5V44.0002H53.9V37.0002H55.1V44.0002H58.4V28.2002H55.1V34.3002Z" fill="#3D2154"/>
<path d="M38 65.9C32.8 66.1 27.4 65.6 22.4 63.8C21 63.3 19.6 62.7 18.3 62C27 69.3 41 69.9 51.8 67.1C51.7 66.4 51.8 65.7 52 65.1C52.2 64.3 52.6 63.5 53.1 62.8C53 62.8 53.0001 62.8 52.9001 62.9C48.1001 64.8 43 65.7 38 65.9Z" fill="#8225CB"/>
<path d="M92.5001 71.2003C92.5001 71.1003 92.4001 71.0003 92.4001 70.9003C92.1001 70.1003 91.7001 69.4003 91.2001 68.7003C90.9001 68.3003 90.6001 68.0003 90.2001 67.7003C89.3001 67.1003 88.3001 66.8003 87.3001 66.6003C86.4001 66.4003 85.4001 66.4003 84.5001 66.5003C83.5001 66.6003 82.6001 66.8003 81.7001 67.2003C81.3001 67.4003 80.8001 67.6003 80.4001 67.9003C79.3001 68.6003 77.8001 69.7003 77.6001 71.2003C77.6001 71.5003 77.6001 71.7003 77.6001 72.0003C77.7001 72.6003 78.0001 73.1003 78.3001 73.6003C78.7001 74.3003 79.2001 75.0003 79.9001 75.5003C80.5001 75.9003 81.1001 76.1003 81.7001 76.3003C82.4001 76.5003 83.1001 76.6003 83.8001 76.7003C85.2001 76.9003 86.7001 76.7003 88.1001 76.3003C89.4001 75.9003 90.8001 75.3003 91.8001 74.2003C92.5001 73.3003 92.7001 72.3003 92.5001 71.2003ZM88.0001 74.0003C86.8001 74.5003 85.6001 74.8003 84.3001 74.8003C83.5001 74.8003 82.7001 74.8003 82.0001 74.6003C81.5001 74.5003 81.0001 74.4003 80.5001 74.2003C79.9001 74.0003 79.3001 73.7003 78.8001 73.4003C78.7001 73.4003 78.7001 73.3003 78.6001 73.3003C78.6001 73.2003 78.6001 73.1003 78.6001 72.9003C78.8001 71.4003 80.3001 70.3003 81.4001 69.6003C82.7001 68.8003 84.1001 68.4003 85.6001 68.3003C87.1001 68.2003 88.7001 68.3003 90.1001 68.9003C90.5001 69.1003 90.8001 69.2003 91.1001 69.5003C91.2001 69.6003 91.3001 69.7003 91.4001 69.7003C91.4001 69.9003 91.5001 70.1003 91.5001 70.2003C91.5001 70.4003 91.5001 70.7003 91.4001 70.9003C91.3001 71.2003 91.2001 71.6003 91.0001 71.8003C90.3001 73.0003 89.1001 73.6003 88.0001 74.0003ZM78.7001 73.5003C78.9001 73.9003 78.8001 74.1003 78.7001 73.7003C78.7001 73.6003 78.7001 73.6003 78.7001 73.5003ZM91.8001 70.1003L91.7001 70.0003C91.7001 70.0003 91.7001 70.0003 91.8001 70.1003Z" fill="#3D2154"/>
<path d="M21.4 33.5C21.3 34 21.3001 34.5 21.2001 35C21.1001 36 20.9 37.6 20.8 38.8H21.9C21.8 37.5 21.6 36 21.5 35C21.4 34.5 21.4 33.9 21.4 33.5Z" fill="#FFFCF1"/>
<path d="M42.6001 31.1002H44.6001V44.0002H48.0001V31.1002H50.0001V28.2002H42.6001V31.1002Z" fill="#3D2154"/>
<path d="M81.4001 69.7001C80.3001 70.4001 78.8001 71.4001 78.6001 73.0001C78.6001 73.1001 78.6001 73.3001 78.6001 73.4001C78.7001 73.4001 78.7001 73.5001 78.8001 73.5001C79.3001 73.9001 79.9001 74.1001 80.5001 74.3001C81.0001 74.5001 81.5001 74.6001 82.0001 74.7001C82.3001 74.2001 82.7001 73.7001 83.1001 73.3001C84.8001 71.8001 86.7001 71.0001 88.7001 70.9001C89.4001 70.8001 90.5001 70.9001 91.5001 71.1001C91.5001 70.9001 91.6001 70.7001 91.6001 70.4001C91.6001 70.2001 91.6001 70.0001 91.5001 69.9001C91.4001 69.8001 91.3001 69.7001 91.2001 69.7001C90.9001 69.5001 90.5001 69.3001 90.2001 69.1001C88.8001 68.5001 87.2001 68.4001 85.7001 68.5001C84.1001 68.4001 82.7001 68.9001 81.4001 69.7001Z" fill="white"/>
<path d="M31.1001 31.2C31.1001 32.6 31.1001 34.2 31.2001 35.9C30.9001 34.3 30.5001 32.5 30.2001 30.9L29.5001 28H26.4001V43.8H29.2001V41C29.2001 39.9 29.2001 37.4 29.1001 36.2C29.4001 37.9 29.9001 39.5 30.4001 41.2L31.2001 44H33.9001V28.1H31.1001V31.2Z" fill="#3D2154"/>
<path d="M38.9001 28.1001C36.1001 28.1001 34.8 30.2001 34.8 36.1001C34.8 42.0001 36.1001 44.1001 38.9001 44.1001C41.6001 44.1001 43 42.0001 43 36.1001C43 30.2001 41.7001 28.1001 38.9001 28.1001ZM38.9001 41.1001C38.2001 41.1001 38.2001 40.0001 38.2001 36.1001C38.2001 32.1001 38.2001 31.2001 38.9001 31.2001C39.6001 31.2001 39.6 32.2001 39.6 36.1001C39.6 40.1001 39.6001 41.1001 38.9001 41.1001Z" fill="#3D2154"/>
<path d="M91.8 70.1C91.7 70 91.7 70 91.7 70C91.7 70.1 91.8 70.1 91.8 70.1Z" fill="white"/>
<path d="M79.1001 62.1001C79.1001 62.3001 79.1001 62.4001 79.1001 62.6001C79.2001 64.4001 78.1001 65.9001 77.0001 67.0001C75.8001 68.2001 74.3001 69.2001 72.8001 69.9001C69.7001 71.5001 66.3001 72.1001 62.8001 72.3001C61.1001 72.4001 59.4001 72.3001 57.7001 71.9001C57.3001 71.8001 56.9001 71.7001 56.6001 71.6001C56.6001 71.7001 56.7001 71.8001 56.7001 71.8001C57.1001 72.5001 57.8001 73.0001 58.5001 73.4001C61.4001 75.0001 64.7001 75.2001 67.8001 74.9001C71.2001 74.6001 74.7001 73.7001 77.6001 71.8001C77.5001 71.5001 77.5001 71.3001 77.6001 71.0001C77.8001 69.5001 79.3001 68.4001 80.4001 67.7001C80.8001 67.4001 81.3001 67.2001 81.7001 67.0001C81.7001 66.8001 81.8001 66.7001 81.8001 66.5001C81.9001 64.8001 80.6001 62.9001 79.1001 62.1001Z" fill="#8225CB"/>
<path d="M79.1 62.6002C79.1 62.4002 79.1 62.2002 79 62.1002C78.8 60.8002 78 59.6002 77.1 58.7002C76.8 58.5002 76.6 58.3002 76.3 58.1002C75.1 57.4002 73.8 57.1002 72.5 56.9002C75 55.1002 77.2 52.8002 79.2 50.3002C81.5 47.2002 83.4 43.7002 84.4 39.8002C85.4 35.8002 85.6 31.6002 84.8 27.5002C84.3 25.0002 83.4 22.6002 82.1 20.4002C81.4 19.1002 80.5 17.9002 79.6 16.8002C74.6 11.0002 67.9 7.50018 61 6.00018C53.6 4.40018 45.9 4.90018 38.6 6.60018C31.2 8.30018 23.9 11.3002 17.8 16.3002C14.9 18.6002 12.4 21.4002 10.4 24.7002C8.50004 27.8002 7.10004 31.4002 6.40004 35.1002C5.70004 38.8002 5.60004 42.7002 6.40004 46.4002C7.00004 49.6002 8.30004 52.5002 10.2 55.0002C12.4 58.1002 15.3 60.3002 18.4 62.0002C19.7 62.7002 21.1 63.3002 22.5 63.8002C27.5 65.6002 32.9 66.1002 38.1 65.9002C43.1 65.7002 48.2 64.8002 52.9 63.0002C53 63.0002 53 63.0002 53.1 62.9002C52.6 63.6002 52.2 64.3002 52 65.2002C51.8 65.9002 51.8 66.6002 51.8 67.2002C51.9 68.2002 52.4 69.2002 53.2 69.9002C54.2 70.7002 55.4 71.3002 56.6 71.7002C57 71.8002 57.4 71.9002 57.7 72.0002C59.4 72.4002 61.1 72.5002 62.8 72.4002C66.2 72.2002 69.6 71.5002 72.8 70.0002C74.3 69.3002 75.8 68.3002 77 67.1002C78.1 65.9002 79.2 64.4002 79.1 62.6002ZM72.8 68.5002C70.2 69.9002 67.4 70.6002 64.5 70.9002C61.7 71.2002 58.8 71.0002 56.2 69.8002C56.1 69.7002 56 69.7002 55.9 69.6002C55.2 69.2002 54.5 68.8002 54 68.1002C53.7 67.7002 53.6 67.2002 53.5 66.7002C53.5 66.4002 53.5 66.1002 53.5 65.8002C53.7 64.0002 54.9 62.7002 56 61.5002C56.2 61.3002 56.5 60.9002 56.1 60.6002C55.8 60.3002 55.3 60.5002 54.9 60.6002L54.8 60.7002C54.7 60.8002 54.6 60.8002 54.5 60.9002C54.2 61.0002 54 61.1002 53.7 61.2002C53.2 61.4002 52.7 61.6002 52.2 61.8002C51.1 62.2002 50.1 62.6002 49 62.9002H48.9H48.8C48.7 62.9002 48.5 63.0002 48.4 63.0002C48.1 63.1002 47.8 63.2002 47.5 63.2002C46.9 63.3002 46.3 63.5002 45.7 63.6002C44.5 63.8002 43.3 64.0002 42 64.2002C41.4 64.3002 40.8 64.3002 40.2 64.4002H40.1C40 64.4002 40 64.4002 39.9 64.4002C39.7 64.4002 39.6 64.4002 39.4 64.4002C39.1 64.4002 38.8 64.4002 38.4 64.5002C37.1 64.6002 35.9 64.6002 34.6 64.5002C32 64.4002 29.6 64.1002 27.1 63.5002C22.5 62.4002 17.9 60.5002 14.3 57.0002C13.9 56.6002 13.5 56.2002 13.2 55.8002C11.9 54.4002 10.8 52.7002 9.90004 50.9002C8.40004 47.7002 7.60004 44.1002 7.60004 40.5002C7.60004 36.8002 8.30004 33.2002 9.50004 29.8002C10.8 26.3002 12.7 23.3002 15 20.6002C19.8 15.1002 26.1 11.8002 32.6 9.50018C39.8 7.20018 47.4 6.00018 55 6.60018C61.5 7.20018 68.1 9.30018 73.6 13.6002C73.7 13.7002 73.8 13.8002 73.9 13.9002C76.7 16.2002 79.2 19.0002 80.9 22.4002C82.7 25.9002 83.5 30.0002 83.4 34.0002C83.3 38.0002 82.3 41.8002 80.6 45.3002C78.9 48.7002 76.6 51.6002 74 54.1002C72.8 55.2002 71.5 56.2002 70.2 57.0002C70 57.1002 69.7 57.3002 69.6 57.6002V57.7002C69.6 57.8002 69.6 58.0002 69.7 58.1002C69.8 58.3002 70.1 58.3002 70.3 58.3002C72.1 58.4002 74.3 58.7002 75.8 59.9002C76.2 60.3002 76.6 60.7002 76.9 61.3002C77 61.6002 77.1 61.8002 77.2 62.2002C78 65.2002 74.8 67.4002 72.8 68.5002Z" fill="#3D2154"/>
<path d="M38.7001 28.2002C35.9001 28.2002 34.6001 30.3002 34.6001 36.2002C34.6001 42.1002 35.9001 44.2002 38.7001 44.2002C41.4001 44.2002 42.8001 42.1002 42.8001 36.2002C42.8001 30.3002 41.5001 28.2002 38.7001 28.2002ZM38.7001 41.2002C38.0001 41.2002 38.0001 40.1002 38.0001 36.2002C38.0001 32.2002 38.0001 31.3002 38.7001 31.3002C39.4001 31.3002 39.4001 32.3002 39.4001 36.2002C39.4001 40.2002 39.4001 41.2002 38.7001 41.2002Z" fill="#3D2154"/>
<path d="M92.5 71.2002C92.8 72.2002 92.6 73.3002 91.9 74.1002C90.9 75.2002 89.5 75.8002 88.2 76.2002C86.8 76.6002 85.4 76.8002 83.9 76.6002C83.2 76.5002 82.5 76.4002 81.8 76.2002C82 77.3002 83 78.0002 84 78.4002C87.3 79.8002 91.1 79.4002 94.1 77.4002C94.9 76.9002 95.7 76.1002 95.7 75.1002C95.8 72.9002 94.3 71.8002 92.5 71.2002Z" fill="#8225CB"/>
</g>
<defs>
<clipPath id="clip0_2486_3039">
<rect width="97" height="80" fill="white"/>
</clipPath>
</defs>
</svg>
